<?xml version="1.0" encoding="UTF-8" standalone="no"?>
<!-- Created with Inkscape (http://www.inkscape.org/) -->

<svg
   width="156.08356mm"
   height="156.08356mm"
   viewBox="0 0 156.08356 156.08356"
   version="1.1"
   id="svg5"
   inkscape:version="1.1.2 (0a00cf5339, 2022-02-04)"
   sodipodi:docname="save.svg"
   xmlns:inkscape="http://www.inkscape.org/namespaces/inkscape"
   xmlns:sodipodi="http://sodipodi.sourceforge.net/DTD/sodipodi-0.dtd"
   xmlns="http://www.w3.org/2000/svg"
   xmlns:svg="http://www.w3.org/2000/svg">
  <sodipodi:namedview
     id="namedview7"
     pagecolor="#ffffff"
     bordercolor="#666666"
     borderopacity="1.0"
     inkscape:pageshadow="2"
     inkscape:pageopacity="0.0"
     inkscape:pagecheckerboard="0"
     inkscape:document-units="mm"
     showgrid="false"
     inkscape:snap-bbox="true"
     inkscape:snap-bbox-edge-midpoints="true"
     inkscape:bbox-nodes="true"
     inkscape:snap-bbox-midpoints="true"
     inkscape:zoom="0.51906082"
     inkscape:cx="423.84243"
     inkscape:cy="152.19796"
     inkscape:window-width="1680"
     inkscape:window-height="978"
     inkscape:window-x="1920"
     inkscape:window-y="0"
     inkscape:window-maximized="1"
     inkscape:current-layer="layer1"
     fit-margin-top="0"
     fit-margin-left="0"
     fit-margin-right="0"
     fit-margin-bottom="0" />
  <defs
     id="defs2" />
  <g
     inkscape:label="Layer 1"
     inkscape:groupmode="layer"
     id="layer1"
     transform="translate(-30.246927,-46.547581)">
    <g
       style="fill:#0000ff;fill-opacity:1"
       id="g6504"
       transform="matrix(0.38340724,0,0,0.38340724,30.246927,46.547581)">
      <g
         id="g6493"
         style="fill:#0000ff;fill-opacity:1">
	<g
   id="g6491"
   style="fill:#0000ff;fill-opacity:1">
		<path
   d="M 402.115,84.008 323.088,4.981 C 319.899,1.792 315.574,0 311.063,0 H 17.005 C 7.613,0 0,7.614 0,17.005 v 373.086 c 0,9.392 7.613,17.005 17.005,17.005 h 373.086 c 9.392,0 17.005,-7.613 17.005,-17.005 V 96.032 c 0,-4.509 -1.791,-8.835 -4.981,-12.024 z M 300.664,163.567 H 67.129 V 38.862 h 233.535 z"
   id="path6487"
   style="fill:#0000ff;fill-opacity:1" />

		<path
   d="m 214.051,148.16 h 43.08 c 3.131,0 5.668,-2.538 5.668,-5.669 V 59.584 c 0,-3.13 -2.537,-5.668 -5.668,-5.668 h -43.08 c -3.131,0 -5.668,2.538 -5.668,5.668 v 82.907 c 0,3.131 2.537,5.669 5.668,5.669 z"
   id="path6489"
   style="fill:#0000ff;fill-opacity:1" />

	</g>

</g>
    </g>
    <rect
       style="fill:#fffffc;fill-opacity:1;stroke:none;stroke-width:3.48287;stroke-opacity:1"
       id="rect8319"
       width="89.417374"
       height="60.53968"
       x="56.106308"
       y="136.22385" />
    <rect
       style="fill:#5f5f5f;fill-opacity:1;stroke:none;stroke-width:3.73203;stroke-opacity:1"
       id="rect8503"
       width="40.3391"
       height="9.7759485"
       x="80.645447"
       y="161.60571" />
    <rect
       style="fill:#5f5f5f;fill-opacity:1;stroke:none;stroke-width:3.73203;stroke-opacity:1"
       id="rect8503-6"
       width="40.3391"
       height="9.7759485"
       x="80.645447"
       y="145.47984" />
    <rect
       style="fill:#5f5f5f;fill-opacity:1;stroke:none;stroke-width:3.73203;stroke-opacity:1"
       id="rect8503-3"
       width="40.3391"
       height="9.7759485"
       x="80.645447"
       y="177.73158" />
  </g>
</svg>
